<?xml version="1.0" encoding="UTF-8" standalone="no"?>
<!-- Created with Inkscape (http://www.inkscape.org/) -->

<svg
   version="1.1"
   id="svg55"
   width="664.91107"
   height="664.91107"
   viewBox="0 0 664.91107 664.91107"
   xmlns="http://www.w3.org/2000/svg"
   xmlns:svg="http://www.w3.org/2000/svg">
  <defs
     id="defs59" />
  <g
     id="g61"
     transform="translate(-8.8778076,-8.8778076)">
    <circle
       style="fill:#333333;fill-opacity:1;stroke-width:1.41196"
       id="path1502"
       cx="341.33334"
       cy="341.33334"
       r="332.45554" />
    <ellipse
       style="fill:#fcca73;fill-opacity:1;stroke-width:0.907437"
       id="path301"
       cx="343.5163"
       cy="350.7388"
       rx="288.61322"
       ry="268.34753" />
    <path
       style="fill:#f7cd00;stroke-width:1.20991"
       d="m 324.20288,279.43391 c -11.31079,-0.86229 -23.33183,-3.03183 -26.72902,-4.82402 -2.50916,-1.32371 -2.71141,-6.12696 -0.84217,-20.00051 1.14104,-8.46885 5.52561,-26.84306 6.706,-28.10249 1.57305,-1.67836 19.18265,-3.65644 32.55102,-3.65644 13.48316,0 30.89621,1.97092 32.61709,3.6918 1.76919,1.76917 6.83702,26.24392 7.48659,36.15597 0.89288,13.62468 2.31175,12.1154 -14.09046,14.98829 -12.83957,2.2489 -24.20855,2.77587 -37.69905,1.7474 z"
       id="path233" />
    <path
       style="fill:#f58c02;stroke-width:1.20991"
       d="M 321.97468,474.80256 C 227.907,471.70194 148.11221,446.00001 134.98062,414.57169 c -3.34781,-8.01243 -2.06722,-8.39028 5.43293,-1.60304 39.35773,35.61669 162.11503,54.87336 272.08287,42.68105 64.35944,-7.13565 111.38803,-22.43244 136.25117,-44.31785 l 5.65652,-4.97907 -0.8108,3.48531 c -6.51025,27.98496 -63.18497,52.43304 -142.68976,61.55285 -16.68246,1.91361 -60.8336,4.35153 -71.99004,3.97512 -3.66,-0.12348 -11.28248,-0.37705 -16.93883,-0.5635 z m -21.17354,-30.77862 c -81.18073,-5.69245 -146.00174,-27.35509 -163.51239,-54.64448 -2.8603,-4.45761 -5.79404,-15.37836 -4.13123,-15.37836 0.45504,0 2.42648,1.67678 4.38098,3.72619 8.51313,8.92651 27.45768,19.18268 50.13543,27.14223 20.32407,7.13344 22.26348,7.7123 29.64295,8.84744 3.99273,0.61418 15.23571,2.5298 24.98441,4.25694 29.80662,5.28071 50.18486,7.03729 89.442,7.70977 33.3828,0.57186 60.46464,-0.39979 80.0677,-2.87267 5.31931,-0.67103 5.74711,-0.52878 5.74711,1.91081 0,3.36637 2.66363,8.52576 5.92571,11.47789 1.39903,1.26611 2.5437,2.65607 2.5437,3.08879 0,0.92361 -20.65301,3.27416 -42.95204,4.88845 -18.70384,1.35401 -61.9288,1.27363 -82.27433,-0.153 z m 154.38021,-12.418 c 1.4645,-2.40166 2.29659,-6.01243 2.29947,-9.97824 l 0.005,-6.21468 5.56091,-0.83391 c 3.05852,-0.45866 11.36157,-2.43477 18.45123,-4.39137 31.57931,-8.71523 54.59027,-19.74017 67.64604,-32.41038 l 5.13484,-4.9835 -0.0121,3.32593 c -0.0197,5.56142 -5.62072,15.78095 -12.11678,22.1083 -13.77546,13.41772 -42.1867,26.00705 -77.58735,34.37978 l -11.67633,2.76162 2.29495,-3.76355 z m -150.09917,-20.2708 c -18.16483,-1.15226 -48.48271,-4.80893 -64.20682,-7.74405 l -10.3192,-1.92622 0.47336,-8.68975 c 0.26037,-4.77934 0.60604,-8.83822 0.76817,-9.01968 0.16213,-0.18148 5.68168,0.50514 12.26566,1.5258 28.94658,4.48735 65.05344,7.87852 83.88516,7.87852 h 8.54517 v 6.57577 c 0,3.61669 0.53098,7.97239 1.17996,9.67934 l 1.17998,3.10355 -8.74195,-0.17504 c -4.80808,-0.0963 -16.07134,-0.63999 -25.02949,-1.20824 z m 71.44851,-4.96878 c 0.54713,-2.82817 1.01849,-7.10204 1.04746,-9.49746 l 0.0526,-4.35531 11.79669,-0.78856 c 6.48818,-0.43371 15.47181,-1.13875 19.96363,-1.56675 l 8.16693,-0.77819 v 9.14299 9.14298 l -4.53718,0.7004 c -6.88561,1.06296 -29.07975,3.14205 -33.54086,3.14205 h -3.94405 z m 80.95465,-14.66405 v -8.91696 l 7.56198,-1.48504 c 12.76055,-2.50596 35.6171,-9.47568 47.90656,-14.60832 15.16344,-6.33291 27.06007,-13.44976 34.97274,-20.92148 l 6.35206,-5.99809 -0.0121,3.50277 c -0.0213,6.31883 -5.29547,15.26042 -13.54607,22.9655 -12.48275,11.65738 -35.39373,22.38991 -65.59901,30.72954 -18.56631,5.12619 -17.63616,5.40402 -17.63616,-5.26792 z m -277.9546,-5.48724 c -27.44752,-11.42946 -43.63743,-25.46486 -46.3246,-40.15985 -0.97546,-5.33437 -0.18167,-5.87637 3.16129,-2.15853 6.84199,7.60925 28.12979,19.7034 45.55939,25.88348 l 9.37686,3.32479 v 8.91749 c 0,4.9046 -0.13611,8.90074 -0.30248,8.88029 -0.16636,-0.0204 -5.32808,-2.12992 -11.47046,-4.68767 z m 135.18444,-7.40593 c -10.31455,-0.47093 -24.79374,-1.53429 -32.17599,-2.36303 l -13.42228,-1.50682 1.57249,-4.40133 c 0.86486,-2.42072 1.59639,-8.1098 1.62559,-12.64239 l 0.0531,-8.24108 5.14214,0.70871 c 11.09838,1.52964 33.57167,3.04912 45.24243,3.05897 10.0681,0.008 12.4041,0.35407 13.0066,1.92417 0.40394,1.05261 0.73441,7.0417 0.73441,13.30909 0,8.41234 -0.3959,11.34482 -1.51239,11.20258 -0.83182,-0.10599 -9.95157,-0.57797 -20.26611,-1.04887 z m 69.40786,-4.10024 c 7.40707,-6.70076 19.79627,-7.08836 25.48948,-0.79744 1.95585,2.16119 1.59255,2.26706 -10.44047,3.04238 -6.85676,0.44181 -14.10022,1.06947 -16.09658,1.39484 l -3.62975,0.59154 z m 73.36608,-19.02438 0.004,-12.5363 13.00284,-2.82153 c 17.37305,-3.76983 39.3134,-11.20666 52.66278,-17.85038 11.85265,-5.89884 15.43139,-8.17325 24.15917,-15.35389 6.6406,-5.46346 7.80037,-4.6008 6.5064,4.8397 -2.0947,15.28251 -18.67373,29.82382 -47.36342,41.54201 -11.5681,4.72494 -35.5165,12.19179 -44.51996,13.88086 l -4.45522,0.83582 0.004,-12.53629 z M 181.51911,354.1502 c -33.79392,-14.04686 -50.57994,-30.87368 -48.50752,-48.62544 l 0.50639,-4.33759 4.997,4.77777 c 9.64622,9.22302 29.15012,19.92989 45.83168,25.15978 l 6.95702,2.18112 v 11.87821 c 0,8.72323 -0.4017,11.86463 -1.5124,11.82707 -0.83182,-0.0282 -4.55429,-1.31554 -8.27217,-2.86092 z m 122.91178,-15.36858 c -8.65091,-0.54486 -17.36231,-1.17496 -19.35867,-1.40025 l -3.62975,-0.40961 4.47913,-2.04589 c 3.88891,-1.77631 6.30188,-1.89733 18.31194,-0.91844 12.21077,0.99525 22.5808,3.49779 22.5808,5.44929 0,0.73513 0.0152,0.73559 -22.38345,-0.6751 z m 157.89412,-11.99298 c 0,-2.34301 8.42737,-7.10955 18.14875,-10.26497 14.70578,-4.77327 33.25097,-13.80844 42.07037,-20.49655 10.42705,-7.9073 15.14691,-15.02585 15.78173,-23.80229 0.67752,-9.36672 -1.46925,-14.96214 -8.65586,-22.56092 -50.4119,-53.30317 -260.37868,-62.71854 -350.72191,-15.72717 -26.0478,13.54859 -36.4654,30.42316 -28.69341,46.47794 3.28299,6.78176 13.39258,15.90615 25.57895,23.0862 9.29281,5.47522 15.62527,11.46239 13.92342,13.16423 -1.16995,1.16995 -18.72388,-6.23137 -28.88139,-12.17733 -30.92654,-18.1037 -36.48671,-39.76384 -15.25363,-59.42193 40.59743,-37.58606 163.65715,-56.16907 275.43112,-41.59233 71.53484,9.32903 120.3168,30.51938 131.35467,57.05903 9.83663,23.65138 -21.14656,48.86861 -79.09717,64.37721 -6.0421,1.61699 -10.98564,2.46247 -10.98564,1.87888 z M 319.55484,287.36733 c -23.99533,-4.42448 -24.14674,-4.49026 -24.17981,-10.50461 -0.0161,-2.93042 0.27941,-3.2104 2.26617,-2.14712 4.67722,2.50317 24.16556,5.01297 38.85248,5.00361 12.89069,-0.008 29.26977,-1.94393 37.80989,-4.46845 1.59039,-0.47013 2.11274,0.0719 2.09883,2.17795 -0.0302,4.57967 -1.35486,5.50582 -10.87269,7.60204 -8.75296,1.92777 -39.67033,3.49908 -45.97487,2.33658 z m -24.00729,-29.51824 c 0,-1.66363 0.27462,-2.34421 0.61027,-1.51239 0.33564,0.83181 0.33564,2.19297 0,3.02479 -0.33565,0.83182 -0.61027,0.15124 -0.61027,-1.5124 z m 79.75899,-0.70578 c 0.0581,-1.40949 0.34475,-1.69618 0.73097,-0.73099 0.34951,0.8734 0.30654,1.91695 -0.0955,2.31901 -0.40204,0.40204 -0.688,-0.31257 -0.63547,-1.58802 z m -43.98199,-35.25503 c 2.14788,-0.26729 5.95911,-0.27168 8.46941,-0.01 2.51029,0.26192 0.75294,0.48061 -3.90525,0.48598 -4.65817,0.005 -6.71206,-0.20893 -4.56416,-0.47622 z"
       id="path231" />
    <path
       style="fill:#e44a3b;stroke-width:1.20991"
       d="m 549.43901,439.94159 c 1.56291,-1.66364 3.11388,-3.02479 3.44661,-3.02479 0.33273,0 -0.67379,1.36115 -2.23669,3.02479 -1.56291,1.66364 -3.11388,3.02479 -3.4466,3.02479 -0.33273,0 0.67377,-1.36115 2.23668,-3.02479 z"
       id="path1894" />
    <path
       style="fill:#e44a3b;stroke-width:1.20991"
       d="m 394.34281,486.9068 c 0.87341,-0.34951 1.91698,-0.30653 2.31902,0.0955 0.40204,0.40205 -0.31257,0.68801 -1.58802,0.63548 -1.40949,-0.0581 -1.69618,-0.34475 -0.731,-0.73099 z"
       id="path1892" />
    <path
       style="fill:#e44a3b;stroke-width:1.20991"
       d="m 291.4999,486.9068 c 0.8734,-0.34951 1.91696,-0.30653 2.31902,0.0955 0.40204,0.40205 -0.31258,0.68801 -1.58802,0.63548 -1.4095,-0.0581 -1.69618,-0.34475 -0.731,-0.73099 z"
       id="path1890" />
    <path
       style="fill:#e44a3b;stroke-width:1.20991"
       d="m 375.53652,488.10478 c 1.17721,-0.30676 2.81059,-0.28658 3.62975,0.0449 0.81914,0.33143 -0.14402,0.58242 -2.14038,0.55776 -1.99637,-0.0247 -2.66659,-0.29583 -1.48937,-0.60259 z"
       id="path1888" />
    <path
       style="fill:#e44a3b;stroke-width:1.20991"
       d="m 308.36311,488.14188 c 0.83183,-0.33565 2.19298,-0.33565 3.02479,0 0.83182,0.33564 0.15125,0.61027 -1.51239,0.61027 -1.66364,0 -2.34422,-0.27463 -1.5124,-0.61027 z"
       id="path1886" />
    <path
       style="fill:#e44a3b;stroke-width:1.20991"
       d="M 323.18459,650.25927 C 247.61967,644.84696 180.90908,615.66512 127.47432,564.64792 75.704468,515.22028 43.036209,449.71924 33.898939,377.02589 c -2.211604,-17.59485 -1.903912,-57.27067 0.586435,-75.6189 7.710303,-56.80751 29.745477,-108.52795 65.542056,-153.83877 9.04963,-11.4549 36.08589,-38.49116 47.54079,-47.54079 67.54322,-53.360684 149.56887,-76.148727 234.90229,-65.259637 74.2989,9.481014 146.64419,49.134732 195.08464,106.929307 39.19659,46.76565 63.88535,103.41599 71.03606,162.99786 1.99622,16.63311 2.8219,49.1744 1.38243,50.06404 -0.70091,0.43319 -3.45975,-2.7323 -6.35027,-5.93261 -19.74996,-21.86673 -82.66283,-85.93489 -83.7671,-85.30534 -0.73858,0.42108 -0.97927,0.36005 -0.53484,-0.13561 1.06892,-1.19215 -1.57115,-4.51167 -11.13903,-14.00576 -31.0449,-30.8055 -111.72421,-50.79354 -205.09481,-50.81158 -82.61366,-0.016 -151.54568,14.83049 -193.51729,41.6794 -21.76322,13.92177 -30.60623,34.34459 -22.21382,51.30258 l 2.9007,5.86124 -2.90299,5.82119 c -3.53995,7.09845 -3.9367,18.13566 -0.91532,25.46309 1.8838,4.56858 1.88545,5.23441 0.0239,9.67934 -2.51899,6.01474 -2.53088,17.8833 -0.0238,23.73616 1.73356,4.04706 1.73196,4.85451 -0.0179,9.04249 -2.33727,5.59389 -2.58848,16.34027 -0.52791,22.58386 1.2213,3.70055 1.21946,5.32876 -0.009,8.29533 -0.84089,2.03009 -1.52889,6.86572 -1.52889,10.74588 0,9.06476 5.45445,20.63317 12.87711,27.31121 9.27184,8.34171 12.30992,10.7103 13.32686,10.39008 0.54856,-0.17274 0.72557,0.12572 0.39336,0.66325 -0.33221,0.53752 4.11914,6.18758 9.89187,12.55567 16.05579,17.71164 63.78413,69.41741 74.11885,80.29552 5.05771,5.32363 18.94581,20.33111 30.86244,33.34996 11.91664,13.01884 31.20088,33.98066 42.85386,46.58179 25.6137,27.69778 30.20115,27.38707 27.20159,27.10719 -1.24604,-0.11626 -9.70177,-0.55957 -12.69632,-0.77406 z"
       id="path229" />
    <path
       style="fill:#c84437;stroke-width:1.20991"
       d="M 312.29534,627.92525 C 265.05318,576.51834 192.57291,497.97402 176.17972,480.42151 170.19063,474.00887 161.28843,464.3226 156.39705,458.89645 l -8.89342,-9.86575 8.28846,4.85173 c 28.84756,16.88617 81.7333,29.32876 144.40409,33.9744 21.52181,1.59536 86.17584,0.8203 104.05283,-1.24736 57.12992,-6.60771 92.32816,-15.31275 121.76175,-30.11349 28.92527,-14.54512 41.91784,-34.60728 35.10864,-54.2122 -1.34405,-3.8698 -1.35359,-5.32366 -0.0545,-8.31906 2.17777,-5.0217 2.06495,-16.5409 -0.21787,-22.24622 -1.72823,-4.31928 -1.72823,-5.26067 0,-10.35106 2.40344,-7.07918 2.42758,-15.81792 0.0622,-22.52212 -1.66466,-4.71818 -1.65023,-5.78023 0.15234,-11.20725 2.58393,-7.77947 1.75443,-19.63181 -1.79497,-25.64759 l -2.55654,-4.33302 2.57485,-5.04712 c 3.52141,-6.90253 4.32052,-18.37144 1.80223,-25.86604 l -1.97254,-5.87041 11.23974,11.4942 c 6.18186,6.32182 26.60007,27.5087 45.37379,47.08194 l 34.46001,35.37973 -0.32596,5.99794 c -0.17281,3.17979 -0.83693,12.21527 -1.85984,20.06844 -7.34545,56.39292 -29.70463,109.00344 -65.4593,154.02387 -10.276,12.93901 -34.15176,36.81351 -47.62295,47.62042 -40.63935,32.60186 -90.6452,55.03807 -141.76216,63.60467 -14.30856,2.39793 -42.80529,4.95266 -54.24434,4.86298 l -5.44462,-0.0427 -21.17355,-23.04015 z m 40.91031,-206.35399 c 0.8734,-0.34951 1.91697,-0.30654 2.31901,0.0955 0.40204,0.40204 -0.31256,0.688 -1.58801,0.63547 -1.4095,-0.0581 -1.69618,-0.34476 -0.731,-0.73099 z m -156.5723,-15.2049 -2.30488,-2.72231 2.72231,2.30488 c 2.55829,2.16602 3.27312,3.13974 2.30488,3.13974 -0.2296,0 -1.45464,-1.22504 -2.72231,-2.72231 z m 180.13363,-8.77189 c 0.01,-3.32727 0.24406,-4.54483 0.52216,-2.70568 0.27811,1.83915 0.27067,4.56146 -0.0164,6.04959 -0.28719,1.48812 -0.51472,-0.0167 -0.50564,-3.34391 z m -0.15502,-9.07437 c 0,-1.66364 0.27463,-2.34422 0.61027,-1.5124 0.33564,0.83182 0.33564,2.19298 0,3.02479 -0.33564,0.83182 -0.61027,0.15124 -0.61027,-1.51239 z m -138.84145,-9.98182 -2.30488,-2.72231 2.72231,2.30488 c 2.55831,2.16601 3.27312,3.13975 2.30489,3.13975 -0.22959,0 -1.45464,-1.22504 -2.72232,-2.72232 z m 26.12817,1.05558 c 0,-0.25124 0.95281,-1.20405 2.11735,-2.11735 1.919,-1.50498 1.9618,-1.46219 0.45682,0.45681 -1.5806,2.01542 -2.57417,2.65635 -2.57417,1.66054 z m 147.45549,-4.08037 c -1.50497,-1.919 -1.46218,-1.96179 0.45682,-0.45682 1.16455,0.91331 2.11736,1.86612 2.11736,2.11736 0,0.99581 -0.99358,0.35488 -2.57418,-1.66054 z M 271.2537,364.8259 c 0.0581,-1.4095 0.34476,-1.69618 0.73098,-0.731 0.34951,0.8734 0.30653,1.91697 -0.0955,2.31901 -0.40205,0.40204 -0.688,-0.31256 -0.63547,-1.58801 z m 64.12558,-10.88925 c 0.0581,-1.4095 0.34475,-1.69618 0.73099,-0.731 0.3495,0.8734 0.30653,1.91697 -0.0955,2.31901 -0.40206,0.40204 -0.68801,-0.31256 -0.63547,-1.58801 z m -37.8298,-20.68931 c 0.87341,-0.34951 1.91696,-0.30654 2.31901,0.0955 0.40205,0.40204 -0.31256,0.68801 -1.58801,0.63547 -1.40949,-0.0581 -1.69619,-0.34476 -0.731,-0.73098 z m 231.32095,-43.33545 c 1.56291,-1.66364 3.11388,-3.0248 3.4466,-3.0248 0.33273,0 -0.67377,1.36116 -2.23669,3.0248 -1.5629,1.66363 -3.11387,3.02479 -3.4466,3.02479 -0.33273,0 0.67378,-1.36116 2.23669,-3.02479 z M 385.8734,204.99617 c 0.8734,-0.34951 1.91697,-0.30653 2.31901,0.0955 0.40204,0.40205 -0.31256,0.68801 -1.58801,0.63548 -1.4095,-0.0581 -1.69619,-0.34475 -0.731,-0.73099 z m -66.01607,-1.21744 c 1.16454,-0.30432 3.07016,-0.30432 4.2347,0 1.16455,0.30433 0.21174,0.55333 -2.11735,0.55333 -2.3291,0 -3.28191,-0.249 -2.11735,-0.55333 z m 42.34708,0 c 1.16454,-0.30432 3.07016,-0.30432 4.2347,0 1.16455,0.30433 0.21174,0.55333 -2.11735,0.55333 -2.32909,0 -3.2819,-0.249 -2.11735,-0.55333 z"
       id="path227" />
    <path
       style="fill:#7b3c10;stroke-width:1.20991"
       d="m 430.48461,440.05822 c -2.5395,-0.93581 -5.72591,-2.70475 -7.0809,-3.931 -5.25075,-4.75186 -5.84433,-7.75409 -5.87218,-29.70077 -0.0317,-24.97464 -2.48828,-26.89561 -11.23346,-32.02064 -8.68354,-5.08889 -16.08277,-6.06188 -23.53692,1.12822 -4.94192,4.76688 -3.71562,8.68818 -3.72416,21.52576 -0.005,8.10482 -3.11427,11.94442 -5.09689,15.15236 -8.5528,13.83873 -29.60979,14.62543 -35.37916,-0.6016 -0.7703,-2.03305 -2.06726,-16.93064 -2.06726,-32.65826 0,-25.2515 -1.93712,-25.60853 -4.63601,-30.71885 -1.80626,-3.42008 -2.99986,-7.536 -6.58268,-9.75513 -4.93964,-3.05954 -7.34154,-1.60297 -20.7529,-2.67933 -14.74493,-1.1834 -15.32718,-3.13552 -20.9363,-0.35278 -8.03185,3.9847 -11.19894,9.16538 -11.28982,18.46772 -0.12087,12.37494 0.41826,20.81833 -3.44327,24.88031 -4.81017,5.05985 -11.18727,4.88619 -17.07265,4.88619 -5.81386,0 -9.47652,0.11094 -14.73513,-4.86314 -2.10523,-1.99134 -3.77658,-4.72264 -4.49953,-4.27584 -0.78829,0.48719 -1.31446,5.16671 -1.31446,11.69032 0,12.09509 -1.30791,15.84844 -7.27106,20.8661 -5.10813,4.29821 -15.18212,8.77571 -20.98686,7.21266 -5.10574,-1.37483 -8.42657,-10.08727 -10.38521,-15.28242 -0.80465,-2.13426 -1.29405,-17.72037 -1.31069,-41.74213 -0.0322,-46.39452 0.19116,-45.48552 -12.9414,-52.67447 -23.35172,-12.78303 -33.26649,-26.45125 -29.49855,-40.66589 3.14824,-11.87681 12.78577,-22.60742 32.64887,-32.40913 63.32909,-31.25059 190.45233,-39.06484 281.6165,-16.13974 37.03119,9.31224 65.47345,27.45295 72.94613,42.88944 10.50576,21.70199 -6.73766,45.37767 -53.4146,60.86713 -11.05251,3.66771 -20.87969,5.83554 -23.51407,12.14046 -1.27465,3.05067 -1.63465,13.93933 -1.63465,49.44263 0,39.87446 -0.24893,46.05495 -2.00397,49.75342 -3.99483,8.41849 -15.82665,12.94753 -24.99676,9.5684 z m -70.91673,-153.9197 c 18.73841,-3.21882 17.2685,-1.43088 16.56775,-20.15216 -0.56173,-15.00725 -3.72825,-32.32005 -7.04479,-38.51707 -2.53412,-4.73506 -37.80981,-6.99297 -56.60858,-3.62337 -8.28436,1.48494 -8.99868,1.85926 -10.52659,5.51605 -3.63001,8.68784 -6.68869,28.42331 -6.33801,40.89458 l 0.34381,12.22667 3.62975,1.01198 c 16.94454,4.72414 41.55007,5.80856 59.97666,2.64332 z"
       id="path225" />
  </g>
</svg>
